# xmcd
#
# Track frame offsets: 
#        150
#        32699
#        64872
#        75840
#        110388
#        151638
#        177003
#        193614
#        200138
#        218884
#        232372
#
# Disc length: 3700 seconds
#
# Revision: 1
# Processed by: cddbd v1.4PL0 Copyright (c) Steve Scherf et al.
# Submitted via: ExactAudioCopy v0.95a3
#
DISCID=8e0e720b
DTITLE=Muti Riccardo - Philharmonie Orchestra - Verdi Ouvertures CD 1
DYEAR=2002
DGENRE=Classical
TTITLE0=La forza del Destino
TTITLE1=Nabucco
TTITLE2=Parte Quarta
TTITLE3=Giovanna d'Arco
TTITLE4=La battaglia die Legnano
TTITLE5=Luzisa Miller
TTITLE6=Aida
TTITLE7=Atto II - Marcia trionfale
TTITLE8=Atto II - Ballabile
TTITLE9=Macbeth
TTITLE10=Atto II - Ballo
EXTD=
EXTT0=
EXTT1=
EXTT2=
EXTT3=
EXTT4=
EXTT5=
EXTT6=
EXTT7=
EXTT8=
EXTT9=
EXTT10=
PLAYORDER=
